<?xml version="1.0" encoding="UTF-8"?><svg id="a" xmlns="http://www.w3.org/2000/svg" width="285" height="60" viewBox="0 0 285 60"><defs><style>.b{fill:#fff;}.c{fill:#93abc2;}.d{fill:#c5d6e4;}.e{fill:#445d71;}.f{fill:#445d72;}.g{fill:#6e8aa2;}.h{fill:#6c88a0;}.i{fill:#566f85;}.j{fill:#50687e;}.k{fill:#829cb4;}.l{fill:#516a80;}.m{fill:#dce8f0;opacity:.55;}</style></defs><g><path class="i" d="M40.1032,24.257s2.875-2.5815,4.7124-.5521c1.8374,2.0294,3.4714,7.2951-2.9915,7.4604-4.0961,.1048-1.7209-6.9083-1.7209-6.9083Z"/><path class="i" d="M11.3506,24.257s-2.875-2.5815-4.7124-.5521-3.4714,7.2951,2.9915,7.4604c4.0961,.1048,1.7209-6.9083,1.7209-6.9083Z"/><path class="h" d="M11.0511,24.8822s-2.2306-2.0029-3.6562-.4284c-1.4255,1.5746-2.6934,5.66,2.321,5.7883,3.178,.0813,1.3352-5.36,1.3352-5.36Z"/><path class="h" d="M40.4968,25.0029s2.2306-2.0029,3.6562-.4284c1.4255,1.5746,2.6934,5.66-2.321,5.7883-3.178,.0813-1.3352-5.36-1.3352-5.36Z"/><path class="i" d="M17.255,10.4606s8.1907-12.177,17.9394-.1628c6.9352,8.5469,5.7117,16.5687,5.7117,16.5687,0,0,6.5161,7.335,4.3039,14.4444-2.2748,7.3103-15.3249,10.9889-15.3249,10.9889,0,0-6.3954,1.8315-16.6523-4.3956-10.2568-6.227-4.7061-17.2915-4.7061-17.2915l1.7296-2.4885s.1207-6.5526,6.9988-17.6636Z"/><path class="f" d="M13.1004,25.0393l7.9774-15.4533s5.5508-5.4301,10.0155,0l6.5161,12.0669,.5615,6.1541s8.8893,11.1015,.8865,18.1003H12.993s-8.5289-4.3843-.0821-17.3361c.384-.5888-.1323-2.8407,.1895-3.5319Z"/><path class="b" d="M14.7572,36.9778s-2.2874-4.359-2.7583-8.4311c-.3165-2.7369,.1876-5.3441,2.7583-6.4112,0,0,3.6201-1.3274,8.3261,.6033,0,0,3.3787,1.81,6.5161-.2413,0,0,10.663-4.4647,10.1362,5.0681l-2.172,11.3429-22.8064-1.9307Z"/><ellipse class="l" cx="30.5487" cy="30.1271" rx="1.8603" ry="2.4408"/><path class="k" d="M12.1467,42.8905c0-7.5307,6.1049-11.4635,13.6356-11.4635s13.6356,3.9328,13.6356,11.4635-6.1049,11.5842-13.6356,11.5842-13.6356-4.0535-13.6356-11.5842Z"/><path class="e" d="M16.2796,42.5801l19.126-.3836s-9.563,8.4168-19.126,.3836Z"/><path class="m" d="M16.241,27.3374l-4.0698,2.4938s1.4503,6.5966,2.6569,7.6424,22.8879,.4043,22.8879,.4043l1.5409-8.0467-2.6798-2.4938H16.241Z"/><path class="d" d="M17.2952,35.9453s-3.6304-8.4519,.8047-10.2929c0,0,2.5105-.9205,5.774,.4184,0,0,2.3431,1.2552,4.5188-.1674,0,0,4.5603-1.2293,7.0129-.1555,2.9663,1.2986,.392,9.7763,.392,9.7763l-18.5026,.421Z"/><ellipse class="l" cx="21.3275" cy="30.1271" rx="1.8603" ry="2.4408"/><ellipse class="l" cx="30.428" cy="30.1271" rx="1.6894" ry="2.4408"/><path class="c" d="M12.1715,42.0851c.1873-6.0653,6.08-10.6581,13.6107-10.6581s13.6395,4.5104,13.6361,10.5786c-.0005,.8849-27.2717,.8849-27.2468,.0795Z"/><ellipse class="j" cx="25.7822" cy="35.2395" rx="7.5418" ry="2.6716"/><ellipse class="g" cx="25.8426" cy="34.2957" rx="4.5251" ry="1.2286"/></g><g><g><path class="k" d="M52.4349,42.6391V12.8281h11.5212c4.9685,0,5.0765,3.5282,5.0765,6.6245v.8641c0,2.9522-.108,6.5886-4.8605,7.0568,4.9326,.3959,5.0405,3.6723,5.0405,6.5886v2.0522c0,3.0963-.108,6.6247-5.0765,6.6247h-11.7012Zm10.585-22.2503c0-1.6562-.468-2.5922-1.9801-2.5922h-2.5924v6.9848h2.5924c1.5121,0,1.9801-.9362,1.9801-2.5924v-1.8001Zm.18,11.9892c0-1.656-.468-2.6281-1.9801-2.6281h-2.7724v7.9207h2.7724c1.5121,0,1.9801-.9362,1.9801-2.5922v-2.7004Z"/><path class="k" d="M89.0507,37.4906c0,3.8523-3.2402,5.7606-8.3887,5.7606-5.1126,0-8.3889-1.9083-8.3889-5.7606V18.3725c0-3.8523,3.2404-6.1565,8.3528-6.1565,5.1485,0,8.4249,2.3042,8.4249,6.1565v11.3773h-10.765v6.3365c0,1.2601,.9001,2.1963,2.3763,2.1963,1.5121,0,2.3763-.9001,2.3763-2.1604v-4.3203h6.0124v5.6885Zm-6.0124-18.1098c0-1.2603-.9003-2.1963-2.4124-2.1963-1.476,0-2.3402,.9001-2.3402,2.1601v5.4367h4.7526v-5.4006Z"/><path class="k" d="M95.0995,42.6391V17.7966h-4.0323v-4.9685h14.1134v4.9685h-4.0684v24.8425h-6.0127Z"/><path class="k" d="M110.0768,42.6391V17.7966h-4.0323v-4.9685h14.1134v4.9685h-4.0684v24.8425h-6.0127Z"/><path class="k" d="M139.0596,37.4906c0,3.8523-3.2402,5.7606-8.3887,5.7606-5.1126,0-8.3889-1.9083-8.3889-5.7606V18.3725c0-3.8523,3.2404-6.1565,8.3528-6.1565,5.1485,0,8.4249,2.3042,8.4249,6.1565v11.3773h-10.765v6.3365c0,1.2601,.9001,2.1963,2.3763,2.1963,1.5121,0,2.3763-.9001,2.3763-2.1604v-4.3203h6.0124v5.6885Zm-6.0124-18.1098c0-1.2603-.9003-2.1963-2.4124-2.1963-1.476,0-2.3402,.9001-2.3402,2.1601v5.4367h4.7526v-5.4006Z"/><path class="k" d="M153.7132,42.6391c-.3959-.9362-.3959-3.5284-.3959-5.4365v-4.8246c0-1.656-.468-2.6281-1.9801-2.6281h-2.7724v12.8892h-6.0124V12.8281h11.7012c4.9685,0,5.0765,3.5282,5.0765,6.6245v.8641c0,2.9522-.108,6.5886-5.0405,7.0568,4.9326,.3959,5.0405,3.6723,5.0405,6.5886v4.4644c0,1.6562,.0359,3.4564,.3241,4.2125h-5.9408Zm-.3959-22.2503c0-1.6562-.468-2.5922-1.9801-2.5922h-2.7724v6.9848h2.7724c1.5121,0,1.9801-.9362,1.9801-2.5924v-1.8001Z"/></g><g><path d="M185.0579,37.4906c0,3.8523-3.2763,5.7606-8.4249,5.7606-5.1124,0-8.3528-1.9083-8.3528-5.7606v-5.6885h6.0127v4.3203c0,1.2603,.8641,2.1604,2.3402,2.1604,1.5121,0,2.4122-.9362,2.4122-2.1963v-2.4483c0-4.8603-10.765-3.6723-10.765-11.3771v-3.8884c0-3.8523,3.2404-6.1565,8.3528-6.1565,5.1485,0,8.4249,2.3042,8.4249,6.1565v4.3564h-6.0127v-3.3482c0-1.2603-.9001-2.1963-2.4122-2.1963-1.476,0-2.3402,.9001-2.3402,2.1601v1.7642c0,5.2926,10.765,2.5922,10.765,11.6653v4.7164Z"/><path d="M188.2988,42.6391V12.8281h13.3213v4.9685h-7.3089v6.9848h7.0927v4.9685h-7.0927v7.9207h7.3089v4.9685h-13.3213Z"/><path d="M204.7528,18.3725c0-3.8523,3.2404-6.1565,8.3528-6.1565,5.1485,0,8.4249,2.3042,8.4249,6.1565v19.118c0,3.8523-3.2402,5.7606-8.3887,5.7606-5.1126,0-8.3889-1.9083-8.3889-5.7606V18.3725Zm10.7652,1.0082c0-1.2603-.9003-2.1963-2.4124-2.1963-1.476,0-2.3402,.9001-2.3402,2.1601v16.7418c0,1.2601,.9001,2.1963,2.3763,2.1963,1.5121,0,2.3763-.9001,2.3763-2.1604V19.3808Z"/><rect class="f" x="229.0713" y="12.84" width="49.4702" height="29.7699"/><path class="b" d="M236.7272,32.0062c-.0515-.3388-.2183-.616-.5005-.8317-.2825-.2156-.6033-.3234-.9625-.3234-.4211,0-.7546,.144-1.001,.4312-.2464,.2875-.3696,.6213-.3696,1.0011,0,.3696,.1155,.6853,.3465,.947,.231,.2619,.5723,.3928,1.0241,.3928,.2669,0,.4852-.0178,.6545-.0539,.1694-.0359,.3362-.1205,.5005-.254v1.617c-.2055,.0823-.398,.1412-.5775,.1771-.1798,.0361-.3723,.0539-.5776,.0539-.9856,0-1.7479-.2976-2.2869-.8932-.5389-.5952-.8085-1.309-.8085-2.1406s.2719-1.5477,.8162-2.1483c.5441-.6006,1.3037-.9009,2.2792-.9009,.8624,0,1.617,.2722,2.2638,.8163,.6468,.5443,.9702,1.2474,.9702,2.1098v4.697c0,.924-.2286,1.5886-.6853,1.9943-.4569,.4055-1.2296,.6083-2.3177,.6083v-1.6015c.4927,0,.8212-.0771,.9856-.2311,.1641-.1539,.2464-.4107,.2464-.7699v-4.697Z"/><path class="b" d="M240.6386,29.9888c.6056-.6365,1.3603-.9549,2.2638-.9549,.4312,0,.8417,.0797,1.232,.2387,.39,.1593,.7288,.3904,1.0164,.693,.2873,.303,.5029,.6418,.6468,1.0165,.1436,.3748,.2156,.7521,.2156,1.1318,0,.8215-.2132,1.4607-.6391,1.9173-.4262,.457-.8343,.765-1.2243,.924-.3903,.1594-.8061,.2387-1.2474,.2387-.9139,0-1.6608-.3131-2.2407-.9394-.5802-.626-.8701-1.3398-.8701-2.1406s.2822-1.5091,.847-2.1252Zm1.1242,3.2008c.2976,.3097,.6723,.4644,1.1242,.4644,.4621,0,.829-.1469,1.1011-.4411,.2719-.294,.4081-.6528,.4081-1.0758s-.1362-.7815-.4081-1.0757c-.2722-.294-.6391-.4413-1.1011-.4413-.4519,0-.8188,.1524-1.1011,.4568-.2825,.3043-.4235,.6579-.4235,1.0602,0,.4026,.1333,.7534,.4004,1.0525Z"/><path class="b" d="M250.0479,29.0801v1.54c-.4928,0-.847,.09-1.0626,.2696-.2156,.1797-.3234,.4442-.3234,.7931v3.3263h-1.617v-3.3263c0-.8625,.2334-1.5116,.7007-1.9482,.467-.4362,1.2344-.6545,2.3023-.6545Z"/><path class="b" d="M251.6494,27.2784c-.154-.1745-.231-.3797-.231-.616,0-.2463,.0821-.4566,.2464-.6313,.1641-.1745,.385-.2619,.6622-.2619,.2873,0,.5082,.0874,.6622,.2619,.154,.1747,.231,.385,.231,.6313,0,.2363-.0746,.4416-.2233,.616-.1489,.1747-.3722,.2618-.6699,.2618-.2875,0-.5135-.087-.6776-.2618Zm-.154,1.8172h1.617v5.9136h-1.617v-5.9136Z"/><path class="b" d="M255.0374,25.7691h1.617v9.2401h-1.617v-9.2401Z"/><path class="b" d="M258.8566,27.2784c-.154-.1745-.2311-.3797-.2311-.616,0-.2463,.0821-.4566,.2464-.6313,.1641-.1745,.385-.2619,.6622-.2619,.2873,0,.5082,.0874,.6622,.2619,.154,.1747,.231,.385,.231,.6313,0,.2363-.0746,.4416-.2233,.616-.1489,.1747-.3723,.2618-.6699,.2618-.2875,0-.5135-.087-.6775-.2618Zm-.154,1.8172h1.617v5.9136h-1.617v-5.9136Z"/><path class="b" d="M262.6296,29.9888c.6057-.6365,1.3602-.9549,2.2638-.9549,.4312,0,.8418,.0797,1.2321,.2387,.39,.1593,.7288,.3904,1.0164,.693,.2873,.303,.503,.6418,.6468,1.0165,.1437,.3748,.2157,.7521,.2157,1.1318,0,.8215-.2132,1.4607-.6392,1.9173-.4261,.457-.8342,.765-1.2242,.924-.3904,.1594-.8062,.2387-1.2475,.2387-.9139,0-1.6608-.3131-2.2407-.9394-.5802-.626-.8701-1.3398-.8701-2.1406s.2823-1.5091,.847-2.1252Zm1.1242,3.2008c.2976,.3097,.6723,.4644,1.1242,.4644,.462,0,.829-.1469,1.1011-.4411,.272-.294,.4081-.6528,.4081-1.0758s-.1361-.7815-.4081-1.0757c-.2721-.294-.6391-.4413-1.1011-.4413-.4519,0-.8189,.1524-1.1012,.4568-.2824,.3043-.4235,.6579-.4235,1.0602,0,.4026,.1334,.7534,.4005,1.0525Z"/><path class="b" d="M269.0204,31.6212c0-.8008,.2718-1.4246,.8161-1.8711,.5441-.4465,1.1959-.6699,1.9558-.6699s1.4115,.2234,1.9558,.6699c.5441,.4465,.8163,1.0703,.8163,1.8711v3.388h-1.617v-3.388c0-.3182-.1105-.5645-.3311-.7392-.2209-.1745-.4955-.2619-.824-.2619-.308,0-.5774,.0874-.8084,.2619-.231,.1747-.3466,.421-.3466,.7392v3.388h-1.617v-3.388Z"/><path class="b" d="M232.8749,15.9285c.6899-.0438,1.9382-.1424,2.0806-.1424,.1751,0,.2189,.0438,.2189,.1204,0,.1533-.0765,.4928-.1313,.6899l-1.095,4.3252,.0438,.0329c.4926-.6352,1.2592-1.8397,2.4308-1.8397,.7776,0,1.1936,.7555,1.1936,1.4563,0,1.6207-1.5878,3.5149-3.2193,3.5149-.7337,0-1.4236-.3066-2.1462-.3831l1.5987-7.0081c.0218-.1095,.0547-.23,.0547-.3395,0-.1533-.2957-.1751-1.0294-.1862v-.2407Zm1.3469,7.8949c1.4345,0,2.2886-2.4746,2.2886-3.5588,0-.3395-.0986-.6899-.4928-.6899-1.1389,0-2.5185,2.5296-2.5185,3.5808,0,.4269,.2846,.6679,.7226,.6679Z"/><path class="b" d="M238.1962,20.5273c.2957-.4708,1.0732-1.4125,1.6755-1.4125,.3175,0,.5475,.208,.5475,.5146,0,.2518-.0986,.7119-.2191,1.1389l-.4708,1.7302c-.0877,.3395-.1424,.5693-.1424,.6899,0,.1533,.0109,.5475,.3286,.5475,.449,0,1.1277-.9638,1.3358-1.3142,.4928-.8321,.6134-1.4343,.7555-2.3322,.0329-.1971,.0986-.5804,.0986-.6461,0-.1095,.1097-.1533,.3395-.1533h.5804c.1533,0,.2737,0,.2737,.1204,0,.0986-.0327,.2189-.0547,.3066l-.8321,3.3398c-.3942,1.5658-.8652,3.9639-2.9456,3.9639-.6134,0-1.2703-.2848-1.2703-.9745,0-.2848,.263-.449,.5148-.449,.657,0,.8979,1.2154,.9636,1.2154,.2848,0,.5475-.3175,.7117-.6679,.4051-.8652,.8212-2.4967,1.0621-3.4604h-.0874c-.471,.6243-1.0076,1.4016-1.8835,1.4016-.5475,0-.887-.4487-.887-1.0621,0-.4378,.0768-.7664,.208-1.281l.3177-1.2592c.0438-.1862,.0765-.3615,.0765-.4272s-.0218-.0986-.0656-.0986c-.208,0-.6243,.5584-.7664,.7008l-.1644-.1315Z"/></g></g></svg>